<?xml version="1.0" standalone="no"?>
<!DOCTYPE svg PUBLIC "-//W3C//DTD SVG 20010904//EN"
 "http://www.w3.org/TR/2001/REC-SVG-20010904/DTD/svg10.dtd">
<svg version="1.0" xmlns="http://www.w3.org/2000/svg"
 width="400.000000pt" height="233.000000pt" viewBox="0 0 400.000000 233.000000"
 preserveAspectRatio="xMidYMid meet">

<g transform="translate(0.000000,233.000000) scale(0.100000,-0.100000)"
fill="#000000" stroke="none">
<path d="M2300 1880 l0 -330 -276 2 -277 3 -1 318 -1 317 -712 5 -712 4 -3
-202 c-2 -111 -2 -318 0 -459 l3 -258 316 0 315 0 -6 -22 c-3 -13 -6 -28 -6
-34 0 -7 -44 -14 -122 -18 -120 -7 -153 -15 -126 -32 7 -5 156 -8 331 -8 l317
1 0 -33 0 -34 -302 -2 c-167 -1 -286 -3 -265 -5 20 -2 37 -8 37 -12 0 -14 -70
-21 -245 -23 -167 -1 -168 -1 -58 -8 62 -3 115 -8 118 -11 6 -6 -62 -79 -74
-79 -4 0 -25 -15 -46 -34 -21 -19 -54 -37 -74 -41 -20 -4 -38 -8 -41 -8 -3 -1
-8 41 -11 93 -5 90 -5 87 -7 -51 -3 -194 -11 -272 -27 -259 -17 14 -33 -377
-16 -408 15 -28 125 -36 404 -30 119 3 219 2 222 -2 2 -4 -1 -21 -7 -37 -11
-30 -12 -31 -69 -26 -82 8 -189 -5 -189 -23 0 -24 46 -27 342 -28 217 -1 290
2 299 12 28 27 -7 37 -125 37 -68 0 -113 4 -114 10 -1 6 -4 22 -8 38 l-6 28
299 -3 c250 -3 303 -1 317 12 16 13 18 33 14 210 l-3 195 340 3 c187 1 349 0
360 -2 19 -5 20 -12 17 -196 -2 -104 -2 -191 0 -192 2 0 143 -4 313 -7 l310
-6 3 -31 c5 -56 -14 -64 -147 -64 -104 0 -120 -2 -136 -20 -28 -31 -13 -48 51
-56 87 -10 633 1 646 14 7 7 3 18 -15 36 -25 25 -31 26 -141 26 -111 0 -116 1
-132 24 -8 14 -14 35 -12 48 l3 23 305 5 c168 3 306 7 308 8 1 1 2 189 2 417
l0 415 -500 0 -500 0 0 40 c0 31 4 40 18 41 9 1 132 0 272 -1 256 -2 310 2
310 24 -1 37 -28 44 -174 45 -93 1 -98 2 -93 21 3 11 0 20 -6 20 -6 0 -7 3 -3
8 4 4 159 9 344 12 l337 5 0 450 0 450 -742 3 -743 2 0 -330z m120 270 c0 -5
-2 -10 -4 -10 -3 0 -8 5 -11 10 -3 6 -1 10 4 10 6 0 11 -4 11 -10z m280 -2 c0
-9 3 -10 8 -2 6 9 43 12 75 6 14 -3 7 -31 -10 -41 -17 -9 -17 -11 0 -28 17
-17 18 -17 11 0 -4 12 -1 17 11 17 9 0 13 -4 10 -10 -3 -5 2 -10 11 -10 16 0
16 -1 0 -19 -11 -12 -25 -17 -39 -13 -20 5 -21 4 -8 -11 9 -12 21 -15 35 -11
18 6 19 5 7 -9 -11 -14 -11 -18 3 -23 24 -9 19 -20 -14 -34 -29 -12 -34 -20
-31 -48 1 -8 -2 -19 -7 -25 -5 -7 -12 -20 -15 -29 -5 -14 -2 -15 23 -6 37 12
60 38 36 38 -10 0 -15 4 -12 9 4 5 0 12 -6 14 -8 3 -6 6 5 6 9 1 17 8 17 16 0
11 7 14 25 9 15 -4 25 -2 25 4 0 6 9 10 19 9 12 -1 17 -6 13 -15 -4 -12 -1
-12 16 -3 26 14 32 14 32 1 0 -5 -6 -10 -14 -10 -8 0 -18 -4 -21 -10 -3 -6 1
-7 9 -4 21 8 20 -2 -1 -30 -18 -24 -18 -24 -45 -5 l-27 19 0 -37 c0 -62 -2
-69 -22 -70 -24 -2 -81 -60 -65 -66 6 -2 18 9 27 26 12 23 17 26 22 14 3 -9
-1 -23 -9 -32 -14 -13 -13 -15 6 -15 11 0 23 8 26 18 3 9 11 28 17 41 l12 23
7 -23 c5 -15 6 -8 3 19 -4 36 -3 42 13 42 10 0 26 14 35 30 10 17 22 30 26 30
9 0 10 -59 1 -61 -3 0 -14 -3 -25 -5 -11 -3 -26 -6 -32 -6 -20 -2 -16 -8 13
-18 19 -7 31 -7 40 1 11 9 14 8 14 -4 0 -8 -13 -20 -30 -25 l-30 -11 28 -50
c14 -28 32 -51 40 -51 8 0 11 -9 8 -27 -5 -27 -4 -27 9 -9 8 11 15 28 15 37 0
25 11 49 22 49 6 0 7 -8 3 -17 -4 -10 -8 -22 -9 -28 -1 -5 -6 -16 -10 -24 -7
-11 -5 -13 8 -8 10 4 21 7 24 7 4 0 6 17 6 37 -1 26 5 44 19 58 l20 20 -5 -20
c-3 -11 -8 -27 -10 -35 -3 -8 -3 -12 -1 -7 9 15 23 -5 23 -34 0 -16 5 -29 12
-29 6 0 8 -3 5 -7 -4 -3 -2 -12 3 -18 8 -9 4 -11 -14 -8 -18 4 -25 0 -29 -17
-8 -30 -27 -16 -27 21 0 36 -13 38 -28 4 -6 -14 -15 -24 -19 -23 -15 4 -53
-23 -53 -37 0 -8 -12 -21 -27 -29 -28 -15 -27 -15 32 -17 33 -1 91 -2 128 -2
53 -1 67 -4 62 -15 -3 -10 3 -12 22 -10 24 3 27 8 30 42 1 21 5 41 8 45 4 3 5
-10 3 -29 l-3 -35 110 -5 110 -5 -3 -29 c-9 -81 -52 -100 -200 -89 -108 7
-258 8 -342 1 -73 -6 -80 1 -80 88 0 51 -4 76 -12 79 -7 2 -96 6 -198 7 l-185
3 3 55 c2 30 6 64 8 75 5 17 2 16 -15 -5 -11 -14 -22 -36 -24 -50 -2 -15 -5
-9 -6 17 0 25 4 43 12 46 8 4 9 8 2 14 -6 4 -12 19 -13 33 l-1 24 17 -25 c9
-14 23 -24 30 -21 10 3 5 13 -15 35 -15 16 -22 27 -14 22 10 -6 12 -2 6 14 -4
13 -2 21 5 21 6 0 8 5 4 11 -4 8 1 9 17 4 19 -5 21 -4 9 4 -8 6 -23 11 -32 11
-10 0 -18 5 -18 10 0 6 7 10 16 10 10 0 12 5 7 13 -4 6 4 5 19 -5 19 -13 28
-14 38 -5 10 10 11 5 6 -19 -6 -29 -4 -32 20 -37 20 -3 37 2 61 20 32 24 44
53 23 53 -5 0 -10 -8 -10 -17 0 -14 -4 -12 -17 7 -10 14 -17 28 -16 32 2 4 -8
3 -22 -2 -17 -7 -24 -6 -22 2 1 6 -4 13 -11 15 -8 3 -10 -1 -6 -11 3 -9 3 -16
-1 -16 -14 0 -35 30 -35 50 0 19 1 20 16 6 8 -9 24 -16 35 -16 17 0 18 6 14
55 -4 43 -2 53 9 49 18 -7 32 16 16 26 -7 4 -9 13 -6 19 4 6 2 11 -3 11 -6 0
-11 14 -11 32 0 30 1 31 15 12 14 -19 14 -19 9 1 -5 19 1 20 95 23 78 3 101 0
101 -10z m598 -28 c-5 -17 -8 -39 -5 -50 3 -11 -1 -21 -9 -24 -18 -7 -44 3
-44 16 0 6 7 8 15 4 11 -4 18 6 26 39 6 25 15 45 20 45 4 0 3 -14 -3 -30z m58
6 c9 -20 9 -24 -2 -20 -47 14 -47 14 -34 29 17 20 23 19 36 -9z m-491 -6 c4
-6 10 -8 15 -5 5 3 11 1 15 -5 3 -5 1 -10 -4 -10 -6 0 -11 -10 -12 -22 0 -13
-3 -17 -6 -10 -2 6 -9 9 -15 6 -14 -9 -27 14 -21 37 6 21 18 25 28 9z m128 -9
c3 -13 1 -18 -9 -14 -7 2 -10 11 -7 19 7 19 10 18 16 -5z m226 -3 c5 -13 7
-25 5 -27 -7 -7 -34 21 -34 35 0 22 20 16 29 -8z m-48 -14 c7 -9 23 -20 36
-25 32 -12 29 -24 -8 -26 -18 -1 -33 -4 -35 -6 -6 -6 24 -79 36 -87 14 -9 4
-70 -12 -70 -6 0 -8 7 -4 15 3 8 1 15 -4 15 -6 0 -10 -4 -10 -10 0 -5 -4 -10
-10 -10 -5 0 -10 7 -10 15 0 8 5 15 10 15 6 0 10 5 10 11 0 8 -5 8 -15 -1 -8
-7 -15 -9 -15 -4 -1 5 -9 -1 -19 -13 l-19 -22 -6 22 c-5 21 -6 21 -20 2 -8
-11 -18 -17 -22 -13 -4 5 1 17 11 28 11 12 13 20 6 20 -6 0 -17 -11 -23 -25
-12 -27 -23 -31 -34 -14 -3 6 -17 8 -30 5 -18 -5 -24 -2 -24 9 0 9 5 13 11 9
6 -3 15 0 20 7 6 11 9 10 14 -3 8 -20 35 -13 35 9 0 8 5 11 10 8 6 -3 10 -1
10 6 0 9 3 9 15 -1 8 -6 23 -9 35 -5 17 5 19 9 9 21 -10 12 -9 13 4 9 8 -4 18
-1 23 6 4 7 2 15 -4 17 -7 2 -9 9 -5 15 3 7 -3 4 -14 -5 -24 -22 -37 -23 -29
-3 9 23 -31 19 -44 -5 -6 -11 -15 -18 -20 -15 -11 7 -2 34 17 53 17 17 63 23
63 8 0 -6 9 0 20 14 11 14 20 19 20 13 0 -7 5 -13 11 -13 20 0 3 24 -22 31
-22 6 -22 7 -3 8 12 1 28 -6 35 -15z m-691 -14 c0 -5 -4 -10 -10 -10 -5 0 -10
5 -10 10 0 6 5 10 10 10 6 0 10 -4 10 -10z m874 -16 c3 -8 2 -13 -2 -10 -4 2
-16 -2 -27 -10 -10 -8 -13 -14 -6 -14 7 0 10 -4 6 -9 -3 -6 3 -14 12 -20 10
-5 15 -12 12 -16 -4 -3 -14 1 -22 10 -20 20 -31 19 -23 -1 4 -12 2 -15 -9 -11
-8 4 -17 2 -20 -3 -10 -17 -35 -11 -28 5 3 9 8 14 11 11 8 -9 42 14 42 27 0
12 35 57 44 57 2 0 7 -7 10 -16z m55 -3 c9 -16 8 -18 -8 -14 -12 3 -17 11 -14
19 7 18 10 18 22 -5z m-2525 -11 c22 -8 25 -15 23 -52 l-2 -43 -62 -3 -63 -3
0 49 c0 27 3 52 7 55 9 10 68 8 97 -3z m76 -36 c0 -34 1 -35 33 -32 29 3 32 6
35 41 2 24 8 37 15 34 14 -4 21 -50 12 -84 -5 -22 -9 -24 -63 -21 l-57 3 -3
39 c-2 21 -1 45 2 53 10 24 26 4 26 -33z m232 28 c10 -10 10 -15 -2 -22 -10
-7 -11 -10 -2 -10 7 0 12 -13 12 -30 0 -30 0 -30 -59 -30 -36 0 -63 5 -67 12
-4 6 -2 14 4 16 9 3 9 9 1 24 -6 11 -8 26 -5 33 9 24 97 28 118 7z m58 -8 c0
-9 11 -14 34 -14 26 0 35 5 39 21 10 37 27 10 27 -42 0 -35 -4 -49 -14 -49 -7
0 -16 9 -19 20 -3 14 -14 20 -32 20 -18 0 -29 -6 -32 -20 -3 -11 -12 -20 -19
-20 -10 0 -14 14 -14 48 0 27 3 52 6 55 10 9 24 -2 24 -19z m-505 -14 c12 -23
13 -35 5 -50 -12 -23 -40 -27 -40 -6 0 8 -4 16 -9 18 -9 3 13 68 23 68 3 0 12
-14 21 -30z m1630 2 c-3 -3 -11 0 -18 7 -9 10 -8 11 6 5 10 -3 15 -9 12 -12z
m1075 -61 c0 -47 -12 -67 -29 -48 -13 17 -10 49 7 70 9 10 10 17 2 22 -5 3
-10 12 -10 18 1 30 30 -31 30 -62z m207 38 c1 -15 0 -17 -3 -6 -4 13 -11 16
-27 11 -20 -6 -20 -5 -8 10 18 22 36 15 38 -15z m-273 -5 c3 -8 2 -12 -4 -9
-6 3 -10 10 -10 16 0 14 7 11 14 -7z m-919 -4 c-3 -5 -10 -10 -16 -10 -5 0 -9
5 -9 10 0 6 7 10 16 10 8 0 12 -4 9 -10z m615 6 c0 -3 -4 -8 -10 -11 -5 -3
-10 -1 -10 4 0 6 5 11 10 11 6 0 10 -2 10 -4z m294 -33 c3 -8 1 -23 -4 -33
-14 -26 -13 -33 4 -27 32 12 63 -54 41 -87 -8 -12 -12 -26 -8 -29 8 -8 12
-132 5 -159 -3 -13 -11 -18 -24 -15 -13 4 -22 -2 -30 -19 -13 -28 -23 -31 -32
-8 -3 8 -2 12 4 9 6 -3 7 1 4 10 -8 20 -71 18 -96 -3 -25 -21 -61 -6 -54 21 3
12 6 28 6 34 0 7 5 12 11 10 6 -1 13 5 14 13 4 25 -59 20 -64 -5 -2 -11 -8
-23 -15 -27 -8 -6 -7 -8 2 -8 15 0 16 -21 1 -54 -7 -14 -17 -22 -25 -19 -8 3
-11 10 -8 15 4 6 8 34 9 64 2 46 0 54 -15 54 -10 0 -21 7 -24 15 -4 11 0 15
11 13 9 -2 18 3 20 10 3 6 0 12 -6 12 -6 0 -11 5 -11 11 0 5 3 8 8 5 4 -2 15
2 25 9 12 8 14 15 8 20 -6 3 -11 15 -11 26 0 19 1 19 16 5 8 -9 20 -14 25 -11
14 9 11 25 -6 25 -15 0 -20 12 -9 23 9 9 34 -4 34 -18 0 -24 30 -24 54 0 24
24 24 44 -1 23 -7 -6 -17 -8 -21 -4 -4 4 2 14 12 22 14 10 16 17 8 27 -11 13
-1 41 15 43 4 0 15 3 23 7 42 17 98 17 104 0z m212 -15 c4 -6 3 -13 -3 -15
-13 -5 -5 -43 9 -43 7 0 7 -4 0 -12 -7 -9 -6 -17 3 -25 10 -10 16 -9 25 2 7 8
8 15 3 15 -15 0 -3 51 13 57 8 3 12 9 9 13 -3 4 2 11 11 14 14 5 15 0 11 -36
-13 -109 -21 -132 -41 -125 -6 3 -17 -1 -23 -8 -17 -18 12 -28 39 -14 16 8 22
8 28 -2 10 -16 -35 -53 -55 -45 -9 3 -15 0 -15 -9 0 -10 10 -15 29 -15 39 0
45 -12 48 -93 3 -62 1 -69 -17 -74 -11 -3 -20 -12 -20 -20 0 -10 -6 -13 -16
-9 -9 3 -18 6 -20 6 -2 0 -4 5 -4 11 0 6 7 9 14 6 11 -4 13 -1 9 11 -11 31
-16 35 -25 18 -15 -26 -29 -19 -18 10 15 38 13 41 -21 36 -24 -4 -30 -2 -24 8
6 10 4 12 -8 7 -23 -9 -27 2 -27 84 -1 133 3 179 17 179 16 0 17 12 2 27 -18
18 -3 46 21 38 11 -4 20 -2 20 4 0 15 17 14 26 -1z m-1200 -35 c-10 -10 -19 5
-10 18 6 11 8 11 12 0 2 -7 1 -15 -2 -18z m584 -33 c0 -5 -5 -10 -11 -10 -5 0
-7 5 -4 10 3 6 8 10 11 10 2 0 4 -4 4 -10z m-483 -32 c-3 -8 -6 -5 -6 6 -1 11
2 17 5 13 3 -3 4 -12 1 -19z m543 -18 c0 -6 -9 -18 -20 -27 -11 -10 -20 -23
-20 -30 0 -7 -4 -13 -10 -13 -17 0 -11 16 18 48 30 35 32 36 32 22z m50 -43
c0 -5 -4 -5 -10 -2 -5 3 -10 14 -10 23 0 15 2 15 10 2 5 -8 10 -19 10 -23z
m-1588 7 c18 -11 -13 -32 -85 -55 -84 -28 -222 -32 -322 -11 -51 11 -73 11
-149 -2 -90 -16 -266 -20 -299 -7 -15 5 -10 11 27 30 65 32 139 37 225 16 71
-17 72 -17 209 9 75 14 155 27 177 30 49 5 204 -2 217 -10z m1472 -70 c16 -40
-3 -47 -28 -9 -16 24 -15 25 3 25 10 0 22 -7 25 -16z m-599 -154 c3 -5 1 -10
-4 -10 -6 0 -11 5 -11 10 0 6 2 10 4 10 3 0 8 -4 11 -10z m-770 -30 c-139 -15
-228 -16 -232 -2 -4 9 30 12 149 11 128 -1 141 -3 83 -9z m-127 -37 c-10 -2
-28 -2 -40 0 -13 2 -5 4 17 4 22 1 32 -1 23 -4z m2169 -12 c41 7 53 -2 53 -40
0 -35 -3 -39 -31 -45 -17 -3 -42 -6 -55 -6 -15 0 -24 -6 -24 -15 0 -12 -16
-15 -87 -15 -92 0 -99 8 -28 33 39 14 40 15 37 55 l-4 41 49 3 c26 2 56 0 65
-5 9 -4 21 -7 25 -6z m-962 -31 c-19 -8 -19 -9 3 -9 14 -1 22 -6 20 -13 -5
-14 -148 -25 -148 -11 0 4 22 6 50 5 39 -3 50 -1 50 11 0 12 -11 14 -50 12
-27 -1 -50 1 -50 6 0 5 33 9 73 8 49 0 66 -3 52 -9z m297 -166 c3 -3 3 -17 -1
-32 -7 -27 -9 -27 -99 -30 l-92 -3 0 36 0 35 93 0 c52 0 96 -3 99 -6z m-1632
-55 l0 -51 -62 6 c-134 14 -158 18 -158 29 0 7 -3 22 -6 34 -7 24 -9 23 179
31 l47 2 0 -51z m925 -1 c44 -66 44 -78 3 -77 -29 0 -38 8 -75 65 l-43 64 40
0 c36 0 42 -4 75 -52z m788 45 c-7 -2 -21 -2 -30 0 -10 3 -4 5 12 5 17 0 24
-2 18 -5z m-548 -160 c3 -18 3 -33 -2 -33 -20 0 -33 26 -33 64 0 37 1 39 14
21 7 -11 17 -35 21 -52z m-190 -12 c10 -20 24 -31 42 -33 32 -4 44 -28 14 -28
-12 0 -21 -4 -21 -10 0 -5 11 -10 25 -10 14 0 25 5 25 10 0 16 18 12 40 -10
30 -30 25 -36 -25 -32 -25 2 -45 0 -45 -4 1 -26 14 -54 26 -54 7 0 16 -5 20
-12 9 -15 17 -118 9 -118 -4 0 -15 10 -26 23 -10 12 -18 16 -19 10 0 -7 -7
-13 -16 -13 -10 0 -14 5 -10 15 5 13 2 14 -17 4 -13 -8 -17 -14 -9 -17 6 -2
12 -9 12 -16 0 -17 -71 -20 -81 -4 -17 27 -9 38 28 38 33 0 35 1 21 18 -23 28
-37 68 -31 91 4 16 1 21 -13 21 -18 1 -18 1 -2 14 10 7 14 16 10 20 -4 4 1 12
11 17 15 9 16 13 2 46 -11 27 -12 39 -4 49 15 19 16 18 34 -15z m-375 -16 c39
-19 70 -38 70 -41 0 -3 -7 -18 -16 -35 -12 -24 -19 -29 -36 -23 -42 13 -148
63 -148 70 0 3 6 4 13 1 8 -3 14 1 14 9 0 8 -4 14 -9 14 -4 0 -8 8 -8 18 0 14
2 15 10 2 6 -9 10 -11 10 -3 0 7 7 10 17 6 11 -4 14 -3 9 5 -11 18 -2 15 74
-23z m560 -83 c0 -31 -4 -42 -12 -40 -14 5 -23 71 -13 96 10 27 25 -6 25 -56z
m376 51 l49 -7 -45 -7 c-54 -8 -108 0 -88 12 16 11 23 11 84 2z m284 -33 c0
-5 -10 -10 -22 -10 -19 0 -20 2 -8 10 19 13 30 13 30 0z m-280 -15 c63 -9 80
-15 80 -27 0 -5 -7 -8 -15 -4 -21 8 -45 -3 -45 -20 0 -9 11 -14 31 -14 28 0
31 -3 25 -22 -3 -13 -6 -35 -6 -50 0 -27 -2 -28 -51 -28 -39 0 -50 3 -46 14 3
7 -3 26 -14 42 l-19 29 -2 -30 c0 -16 -1 -38 0 -47 1 -12 -5 -18 -18 -18 -18
0 -20 7 -20 89 0 91 5 104 40 96 8 -2 35 -6 60 -10z m368 8 c-10 -2 -26 -2
-35 0 -10 3 -2 5 17 5 19 0 27 -2 18 -5z m300 -25 c-4 -22 -1 -23 69 -25 40 0
80 -4 88 -7 19 -7 21 -106 3 -124 -8 -8 -46 -12 -104 -12 -113 0 -124 8 -124
86 0 52 1 54 28 54 24 1 25 2 10 14 -18 14 -25 32 -9 21 5 -3 12 -1 16 5 12
19 27 10 23 -12z m-1401 -25 c34 -20 63 -40 63 -44 0 -4 -7 -12 -15 -19 -21
-17 -139 46 -143 78 -5 32 20 28 95 -15z m1453 25 c0 -4 -9 -8 -20 -8 -11 0
-20 4 -20 9 0 6 9 9 20 8 11 -1 20 -5 20 -9z m67 6 c-3 -3 -12 -4 -19 -1 -8 3
-5 6 6 6 11 1 17 -2 13 -5z m43 -4 c0 -5 -4 -10 -10 -10 -5 0 -10 5 -10 10 0
6 5 10 10 10 6 0 10 -4 10 -10z m-285 -10 c-28 -12 -78 -12 -70 0 3 6 25 10
48 9 33 0 38 -2 22 -9z m-277 -28 c27 -16 29 -26 2 -19 -13 3 -25 -2 -35 -16
-12 -17 -17 -19 -27 -9 -10 10 -8 14 10 18 23 7 29 19 13 28 -5 3 -21 -6 -35
-19 -33 -30 -67 -32 -84 -5 -7 11 -22 20 -35 21 -18 0 -19 2 -5 7 30 12 172 8
196 -6z m92 -4 c0 -6 8 -7 18 -3 29 12 114 16 107 5 -3 -6 -12 -10 -20 -10 -9
0 -15 -14 -17 -37 -3 -37 -4 -38 -45 -41 -41 -3 -42 -2 -49 32 -3 20 -10 36
-15 36 -5 0 -9 9 -9 20 0 13 5 18 15 14 8 -4 15 -11 15 -16z m-716 -20 c12
-19 10 -23 -20 -32 -18 -6 -22 -2 -26 24 -4 26 -2 31 15 28 11 -2 25 -11 31
-20z m896 -18 c0 -5 -4 -10 -10 -10 -5 0 -10 5 -10 10 0 6 5 10 10 10 6 0 10
-4 10 -10z m-2654 -35 c12 -9 14 -14 6 -15 -7 0 -10 -5 -6 -12 4 -7 3 -8 -5
-4 -6 4 -9 12 -6 17 4 5 2 9 -4 9 -5 0 -13 -4 -16 -10 -3 -5 -2 -10 3 -10 5 0
7 -36 4 -79 -4 -71 -3 -80 14 -84 13 -3 11 -5 -8 -6 -28 -1 -28 0 -28 58 0 33
-4 63 -10 66 -5 3 -10 -1 -10 -9 0 -8 -9 -20 -21 -26 -11 -7 -18 -14 -15 -17
3 -3 -2 -12 -12 -19 -14 -10 -18 -10 -24 4 -6 14 -7 14 -7 -3 -1 -32 34 -80
68 -94 44 -19 95 -6 125 30 14 17 26 39 26 50 0 16 -7 19 -41 19 -24 0 -38 4
-34 10 5 9 82 4 93 -6 11 -9 -24 -77 -49 -99 -63 -52 -163 -25 -204 56 -32 61
-3 137 65 171 43 22 70 23 96 3z m2244 -25 c0 -5 -7 -10 -15 -10 -8 0 -15 5
-15 10 0 6 7 10 15 10 8 0 15 -4 15 -10z m60 0 c0 -13 -20 -13 -40 0 -12 8 -9
10 13 10 15 0 27 -4 27 -10z m80 0 c0 -5 -2 -10 -4 -10 -3 0 -8 5 -11 10 -3 6
-1 10 4 10 6 0 11 -4 11 -10z m30 0 c0 -5 -4 -10 -10 -10 -5 0 -10 5 -10 10 0
6 5 10 10 10 6 0 10 -4 10 -10z m210 6 c0 -3 -4 -8 -10 -11 -5 -3 -10 -1 -10
4 0 6 5 11 10 11 6 0 10 -2 10 -4z m-2372 -88 l3 -67 37 -3 c29 -2 37 -7 37
-23 0 -18 -8 -20 -67 -23 l-68 -3 0 96 0 96 28 -3 c26 -3 27 -5 30 -70z m240
56 c31 -22 29 -54 -4 -54 -14 0 -32 7 -41 15 -22 23 -43 1 -43 -45 0 -42 22
-59 47 -38 13 10 12 13 -6 20 -12 4 -21 14 -21 23 0 11 11 15 45 15 l45 0 0
-54 0 -54 -62 -1 c-83 0 -108 21 -108 91 0 39 5 54 25 73 29 29 88 34 123 9z
m1705 -23 c13 -1 -3 -105 -17 -113 -16 -11 -46 -10 -46 2 0 6 11 10 25 10 20
0 25 5 25 25 0 34 -45 36 -56 3 -10 -33 -36 -63 -56 -64 -10 -1 -18 2 -18 6 0
5 -8 6 -18 3 -16 -4 -19 3 -21 58 -1 42 2 65 11 71 10 7 67 6 171 -1z m248
-66 c-1 -33 -5 -62 -7 -64 -10 -10 -186 -13 -196 -3 -5 5 -12 37 -15 71 l-6
62 114 -3 113 -3 -3 -60z m252 58 c2 -5 2 -36 -1 -70 l-4 -63 -103 0 -102 0
-7 53 c-11 94 -20 87 103 87 61 0 112 -3 114 -7z m247 -59 c0 -57 -2 -65 -16
-60 -9 3 -55 1 -102 -4 -68 -9 -87 -8 -93 2 -10 16 -12 112 -2 121 3 4 53 7
110 7 l103 0 0 -66z m-1272 25 c2 -19 1 -21 -7 -8 -8 12 -21 15 -56 12 -31 -4
-45 -1 -45 7 0 7 6 10 14 7 8 -3 27 -2 43 3 38 11 48 8 51 -21z m-123 -1 c-5
-11 -31 -14 -77 -9 -26 3 17 21 49 21 22 0 31 -4 28 -12z m90 -8 c3 -5 -1 -10
-10 -10 -9 0 -13 5 -10 10 3 6 8 10 10 10 2 0 7 -4 10 -10z m235 -155 c0 -34
-1 -35 -40 -35 -39 0 -40 1 -40 35 0 34 1 35 40 35 39 0 40 -1 40 -35z m250
25 c0 -5 -8 -11 -17 -11 -17 -1 -17 -2 0 -6 21 -5 22 -19 3 -26 -33 -13 -76
19 -60 44 7 12 74 11 74 -1z m488 -18 c3 -9 -3 -13 -19 -10 -12 1 -24 9 -27
16 -3 9 3 13 19 10 12 -1 24 -9 27 -16z m252 -8 c0 -21 -4 -25 -22 -22 -15 2
-24 11 -26 26 -3 18 1 22 22 22 21 0 26 -5 26 -26z m-495 -4 c-3 -5 -17 -10
-30 -10 -13 0 -27 5 -30 10 -4 6 8 10 30 10 22 0 34 -4 30 -10z m-2140 -60
c14 0 25 7 28 18 4 13 5 12 6 -4 1 -16 -7 -24 -24 -28 -36 -9 -45 0 -43 42 l1
37 4 -32 c4 -27 9 -33 28 -33z m67 25 c-2 -19 -8 -35 -13 -35 -10 0 -12 53 -2
63 14 15 19 6 15 -28z m98 10 c19 0 20 -47 1 -53 -8 -3 -12 1 -9 9 3 8 -1 20
-9 27 -7 7 -13 21 -12 30 0 14 2 15 7 2 4 -8 14 -15 22 -15z m110 14 c0 -5 -5
-7 -10 -4 -15 9 -40 -14 -33 -31 3 -8 15 -14 27 -13 11 0 15 3 9 6 -7 2 -13 9
-13 15 0 6 7 7 16 4 9 -4 22 -1 30 5 9 7 19 7 32 0 13 -7 22 -7 30 1 9 9 15 9
23 1 12 -12 45 0 61 22 4 6 8 -6 8 -26 0 -38 -23 -60 -43 -40 -7 7 -15 7 -24
0 -9 -9 -17 -8 -28 1 -12 10 -18 10 -30 0 -12 -10 -19 -10 -27 -2 -8 8 -17 8
-30 1 -38 -21 -77 28 -46 59 15 15 48 16 48 1z m-152 -27 c2 -7 -5 -12 -15
-13 -17 0 -17 -1 1 -8 14 -5 16 -10 7 -15 -14 -9 -41 10 -41 29 0 24 40 30 48
7z m1495 -19 c-7 -2 -19 -2 -25 0 -7 3 -2 5 12 5 14 0 19 -2 13 -5z m260 0
c-7 -2 -19 -2 -25 0 -7 3 -2 5 12 5 14 0 19 -2 13 -5z m503 -43 c11 0 14 -9
12 -32 -2 -24 -7 -32 -20 -30 -32 5 -28 -16 5 -22 22 -5 35 -2 41 7 7 11 13 9
32 -10 29 -29 29 -31 2 -36 -20 -3 -18 -5 10 -12 66 -16 13 -26 -134 -26 -82
0 -152 1 -156 2 -5 1 -14 2 -20 3 -7 1 -12 7 -10 14 1 7 -7 12 -19 12 -11 0
-18 -4 -15 -8 10 -16 -11 -34 -33 -27 -12 3 -19 11 -16 16 8 13 -12 11 -67 -5
-37 -12 -52 -12 -72 -3 -14 7 -26 15 -26 20 0 9 -84 9 -94 0 -3 -4 6 -13 21
-20 l28 -13 -30 5 c-16 3 -58 6 -93 7 -45 2 -61 6 -58 15 3 7 1 15 -5 19 -6 3
-3 11 8 20 22 16 33 18 33 4 0 -5 -7 -10 -15 -10 -8 0 -15 -4 -15 -9 0 -16 24
-18 65 -6 22 7 35 13 29 14 -22 2 -23 40 -2 47 11 3 21 4 22 2 1 -1 7 -14 13
-28 7 -15 12 -19 12 -9 1 11 10 15 34 14 24 -2 37 4 53 23 19 23 25 25 45 15
22 -11 23 -12 3 -12 -11 -1 -29 -10 -41 -20 -11 -10 -29 -21 -39 -24 -17 -4
-16 -5 3 -6 12 0 28 6 37 14 8 8 23 15 34 15 11 0 32 6 47 14 25 13 25 15 8
25 -21 12 -9 14 36 5 17 -4 31 -13 31 -21 0 -9 -6 -12 -17 -9 -10 3 -24 2 -32
-3 -11 -7 -9 -10 8 -16 12 -3 19 -11 16 -16 -4 -5 6 -9 22 -9 21 0 24 3 13 10
-31 19 13 28 75 15 27 -6 28 -5 13 8 -16 13 -16 16 -2 33 14 17 15 17 10 2 -6
-19 18 -26 29 -9 3 5 30 7 60 4 54 -6 55 -5 55 20 0 26 15 39 38 31 8 -2 20
-4 28 -4z m-746 -8 c0 -5 -13 -7 -30 -4 -16 2 -30 6 -30 8 0 2 14 4 30 4 17 0
30 -4 30 -8z m251 -24 c-9 -46 -31 -48 -31 -4 0 29 4 36 19 36 15 0 17 -5 12
-32z m759 28 c0 -2 3 -11 6 -20 5 -13 -1 -16 -29 -16 -46 0 -60 20 -15 21 l33
1 -30 8 -30 8 33 1 c17 0 32 -1 32 -3z m-510 -16 c0 -5 -9 -10 -20 -10 -11 0
-20 5 -20 10 0 6 9 10 20 10 11 0 20 -4 20 -10z m-2639 -27 c30 -18 34 -29 21
-50 -9 -14 -122 -15 -122 -1 0 4 3 8 8 9 51 5 82 16 82 29 0 15 -43 12 -68 -6
-17 -12 -22 -12 -22 -2 0 13 34 35 58 37 8 0 27 -7 43 -16z m2129 7 c0 -5 -2
-10 -4 -10 -3 0 -8 5 -11 10 -3 6 -1 10 4 10 6 0 11 -4 11 -10z m-2100 -101
c0 -17 -8 -19 -65 -19 -56 0 -65 3 -65 18 0 15 10 18 65 19 57 0 65 -2 65 -18z
m3004 -4 c-4 -8 -10 -12 -15 -9 -11 6 -2 24 11 24 5 0 7 -7 4 -15z m-2520 -76
c-3 -5 -10 -7 -15 -3 -5 3 -7 10 -3 15 3 5 10 7 15 3 5 -3 7 -10 3 -15z m2109
14 c-7 -2 -19 -2 -25 0 -7 3 -2 5 12 5 14 0 19 -2 13 -5z"/>
<path d="M2582 2058 c5 -15 28 -18 29 -3 0 6 -7 12 -17 13 -10 3 -15 -1 -12
-10z"/>
<path d="M2532 2010 c1 -17 5 -30 11 -30 5 0 -1 -9 -14 -21 -19 -16 -20 -18
-4 -10 18 9 55 46 55 55 0 2 -11 11 -24 20 -24 15 -25 15 -24 -14z"/>
<path d="M2706 2007 c3 -10 9 -15 12 -12 3 3 0 11 -7 18 -10 9 -11 8 -5 -6z"/>
<path d="M2657 2003 c-4 -3 -7 -11 -7 -17 0 -6 5 -5 12 2 6 6 9 14 7 17 -3 3
-9 2 -12 -2z"/>
<path d="M2650 1934 c0 -3 9 -17 19 -30 16 -20 20 -21 25 -8 3 8 10 12 16 9 5
-3 10 -2 10 4 0 5 -3 12 -7 14 -16 9 -63 17 -63 11z"/>
<path d="M2560 1919 c0 -5 5 -7 10 -4 6 3 10 8 10 11 0 2 -4 4 -10 4 -5 0 -10
-5 -10 -11z"/>
<path d="M2573 1885 c0 -8 7 -15 15 -15 12 0 12 3 2 15 -7 8 -13 15 -15 15 -1
0 -2 -7 -2 -15z"/>
<path d="M2477 1765 c-15 -14 -16 -20 -5 -26 17 -10 31 4 26 27 -3 17 -4 17
-21 -1z"/>
<path d="M2698 1773 c7 -3 16 -2 19 1 4 3 -2 6 -13 5 -11 0 -14 -3 -6 -6z"/>
<path d="M2720 1720 c0 -5 5 -10 11 -10 5 0 7 5 4 10 -3 6 -8 10 -11 10 -2 0
-4 -4 -4 -10z"/>
<path d="M3051 1654 c0 -11 3 -14 6 -6 3 7 2 16 -1 19 -3 4 -6 -2 -5 -13z"/>
<path d="M2970 1420 c-7 -4 2 -10 21 -14 40 -8 45 -4 14 10 -13 6 -28 8 -35 4z"/>
<path d="M815 2020 c3 -5 17 -10 31 -10 13 0 24 5 24 10 0 6 -14 10 -31 10
-17 0 -28 -4 -24 -10z"/>
<path d="M828 1983 c12 -2 30 -2 40 0 9 3 -1 5 -23 4 -22 0 -30 -2 -17 -4z"/>
<path d="M1115 2020 c3 -5 17 -10 31 -10 13 0 24 5 24 10 0 6 -14 10 -31 10
-17 0 -28 -4 -24 -10z"/>
<path d="M1105 1980 c3 -5 17 -10 30 -10 13 0 27 5 30 10 4 6 -8 10 -30 10
-22 0 -34 -4 -30 -10z"/>
<path d="M3285 1951 c-3 -6 -14 -8 -25 -6 -11 2 -20 0 -20 -4 0 -5 15 -11 33
-13 29 -3 33 -1 29 14 -5 20 -8 22 -17 9z"/>
<path d="M3345 1951 c-3 -5 -1 -12 5 -16 5 -3 10 1 10 9 0 18 -6 21 -15 7z"/>
<path d="M3254 1909 c-8 -13 25 -24 37 -12 7 7 3 12 -10 16 -12 3 -24 1 -27
-4z"/>
<path d="M3340 1871 c0 -5 9 -11 20 -14 24 -6 27 8 4 17 -21 8 -24 8 -24 -3z"/>
<path d="M3280 1860 c-9 -6 -10 -10 -3 -10 6 0 15 5 18 10 8 12 4 12 -15 0z"/>
<path d="M3197 1753 c4 -10 2 -14 -5 -9 -15 9 -26 -14 -13 -27 9 -9 14 -8 21
3 13 20 13 50 0 50 -5 0 -6 -7 -3 -17z"/>
<path d="M3576 1823 c-4 -9 -3 -20 2 -25 6 -6 12 -1 15 11 6 25 -8 38 -17 14z"/>
<path d="M3581 1676 c-8 -10 -9 -16 -1 -21 13 -8 30 3 30 21 0 18 -14 18 -29
0z"/>
<path d="M3560 1630 c0 -6 7 -10 15 -10 8 0 15 2 15 4 0 2 -7 6 -15 10 -8 3
-15 1 -15 -4z"/>
<path d="M3626 1633 c-11 -11 -6 -23 9 -23 8 0 15 4 15 9 0 13 -16 22 -24 14z"/>
<path d="M2905 900 c-3 -5 -1 -10 4 -10 6 0 11 5 11 10 0 6 -2 10 -4 10 -3 0
-8 -4 -11 -10z"/>
<path d="M3535 930 c3 -5 13 -10 21 -10 8 0 14 -5 14 -11 0 -7 -9 -9 -24 -5
-19 5 -25 1 -30 -16 -8 -32 4 -38 42 -22 51 22 41 74 -14 74 -9 0 -12 -4 -9
-10z"/>
<path d="M3625 910 c3 -5 8 -10 11 -10 2 0 4 5 4 10 0 6 -5 10 -11 10 -5 0 -7
-4 -4 -10z"/>
<path d="M3137 744 c-4 -4 -7 -18 -7 -32 0 -21 2 -22 15 -12 12 10 15 10 15 0
0 -10 3 -10 15 0 8 7 15 18 14 24 0 6 -3 5 -6 -3 -4 -11 -10 -9 -22 8 -9 12
-20 19 -24 15z"/>
<path d="M3020 715 c0 -22 4 -25 35 -25 19 0 35 4 35 9 0 17 -20 23 -35 11
-12 -10 -15 -9 -15 9 0 11 -4 21 -10 21 -5 0 -10 -11 -10 -25z"/>
<path d="M3430 724 c0 -13 -8 -15 -35 -12 -24 3 -35 0 -35 -9 0 -8 14 -13 40
-13 36 0 40 3 40 25 0 14 -2 25 -5 25 -3 0 -5 -7 -5 -16z"/>
<path d="M3288 693 c12 -2 30 -2 40 0 9 3 -1 5 -23 4 -22 0 -30 -2 -17 -4z"/>
<path d="M1300 550 c0 -5 5 -10 10 -10 6 0 10 5 10 10 0 6 -4 10 -10 10 -5 0
-10 -4 -10 -10z"/>
<path d="M1360 550 c0 -5 5 -10 10 -10 6 0 10 5 10 10 0 6 -4 10 -10 10 -5 0
-10 -4 -10 -10z"/>
<path d="M1410 550 c0 -5 7 -10 15 -10 8 0 15 5 15 10 0 6 -7 10 -15 10 -8 0
-15 -4 -15 -10z"/>
<path d="M3275 430 l-20 -8 20 -7 c11 -4 37 -14 58 -22 20 -9 40 -13 44 -9 10
10 -17 25 -34 19 -7 -3 -13 1 -13 10 0 11 -24 30 -33 26 -1 0 -11 -4 -22 -9z"/>
<path d="M3180 386 c0 -8 51 -13 56 -5 3 5 -9 9 -25 9 -17 0 -31 -2 -31 -4z"/>
<path d="M3330 360 c20 -13 67 -13 75 0 4 6 -12 10 -42 10 -35 0 -44 -3 -33
-10z"/>
</g>
</svg>
