<?xml version="1.0" standalone="no"?>
<!DOCTYPE svg PUBLIC "-//W3C//DTD SVG 20010904//EN"
 "http://www.w3.org/TR/2001/REC-SVG-20010904/DTD/svg10.dtd">
<svg version="1.0" xmlns="http://www.w3.org/2000/svg"
 width="500.000000pt" height="275.000000pt" viewBox="0 0 500.000000 275.000000"
 preserveAspectRatio="xMidYMid meet">

<g transform="translate(0.000000,275.000000) scale(0.100000,-0.100000)"
fill="#000000" stroke="none">
<path d="M2210 2378 c-206 -66 -505 -161 -664 -211 -173 -55 -297 -99 -307
-110 -9 -10 -20 -35 -24 -55 -3 -21 -41 -212 -85 -427 -114 -565 -131 -657
-126 -662 4 -5 494 40 594 53 l42 6 0 -40 c0 -27 -5 -42 -16 -46 -19 -7 -16
-72 4 -68 9 1 12 -48 12 -223 l0 -225 740 0 740 0 0 95 c0 77 3 93 14 89 8 -3
58 4 113 14 54 11 115 23 136 27 48 8 42 17 -27 40 -30 10 -53 22 -50 26 2 4
14 5 25 2 14 -4 25 0 31 11 7 13 20 15 66 11 l57 -6 -45 20 c-25 11 -53 20
-62 20 -28 1 -29 15 -7 111 18 77 19 94 8 101 -9 6 2 8 31 7 25 0 35 -3 23 -5
-21 -4 -23 -10 -23 -63 l0 -58 140 -47 c77 -26 142 -50 145 -54 2 -4 -15 -7
-39 -7 -24 1 -39 4 -33 8 7 4 -5 8 -27 8 -35 0 -37 -2 -25 -17 12 -15 12 -16
-6 -9 -11 5 -28 8 -38 8 -9 0 -16 2 -13 6 2 4 -9 8 -25 9 -16 1 -29 1 -29 -1
0 -1 32 -16 70 -31 39 -16 75 -34 80 -40 7 -9 26 -8 76 2 37 8 74 17 83 22 9
4 39 9 66 9 28 0 122 15 210 33 146 29 166 30 230 20 39 -6 80 -14 93 -17 18
-5 22 -2 22 15 0 17 6 21 29 21 17 0 33 -4 36 -10 3 -5 12 -10 18 -10 25 1
-28 30 -55 30 l-28 0 0 173 c0 95 -5 231 -10 303 -6 71 -14 222 -18 335 -8
200 -9 206 -32 231 -46 46 -133 83 -285 118 -27 7 -57 14 -65 17 -8 2 -53 -19
-99 -46 -46 -28 -87 -51 -91 -51 -4 0 -13 44 -20 98 -18 149 -10 137 -103 161
-90 23 -725 193 -904 242 l-112 31 -3 62 c-3 60 -3 61 -33 63 -16 1 -199 -53
-405 -119z m437 -50 c-3 -7 -5 -2 -5 12 0 14 2 19 5 13 2 -7 2 -19 0 -25z
m-10 -105 c-3 -10 -5 -4 -5 12 0 17 2 24 5 18 2 -7 2 -21 0 -30z m-10 -100
c-3 -10 -5 -4 -5 12 0 17 2 24 5 18 2 -7 2 -21 0 -30z m22 -457 c22 -250 34
-351 43 -357 7 -5 -24 -9 -74 -9 l-86 0 8 33 c4 17 23 190 41 382 19 193 35
339 37 325 1 -14 15 -182 31 -374z m-789 190 c0 -3 -4 -8 -10 -11 -5 -3 -10
-1 -10 4 0 6 5 11 10 11 6 0 10 -2 10 -4z m480 -38 c0 -7 -7 -31 -15 -53 -8
-22 -14 -51 -15 -63 l0 -24 38 30 c38 30 75 52 87 52 13 0 -6 -54 -31 -92 -13
-21 -24 -41 -24 -44 0 -4 -7 -16 -17 -26 -15 -17 -15 -18 12 -18 31 0 90 33
105 58 8 14 9 11 10 -13 0 -54 -11 -74 -67 -117 -30 -24 -73 -58 -96 -75 -23
-18 -75 -52 -115 -76 -40 -24 -69 -46 -65 -50 3 -4 -83 -6 -193 -5 -109 1
-175 3 -146 5 28 2 52 8 52 13 0 13 -35 30 -62 30 -31 0 -154 118 -139 133 7
7 5 22 -4 44 -25 58 -38 152 -24 169 10 13 14 12 29 -1 15 -14 18 -14 30 0 7
8 21 15 31 15 11 0 19 4 19 10 0 20 58 67 91 73 24 5 30 4 19 -3 -16 -11 10
-13 150 -15 60 -1 79 3 97 18 19 17 32 18 100 13 60 -5 84 -3 103 9 31 18 40
19 40 3z m1835 -183 c1 -5 6 -20 10 -32 4 -13 11 -23 16 -23 5 0 9 -6 9 -14 0
-7 11 -30 25 -50 14 -20 25 -46 25 -56 0 -11 6 -19 12 -17 16 3 23 -44 8 -53
-8 -5 -6 -11 5 -20 10 -8 15 -9 15 -1 0 6 5 11 12 11 9 0 9 -3 0 -12 -8 -8 -9
-15 -1 -25 23 -28 -9 -11 -38 20 -57 59 -102 174 -117 297 -6 47 -6 48 19 -25z
m-2585 35 c0 -5 -4 -10 -10 -10 -5 0 -10 5 -10 10 0 6 5 10 10 10 6 0 10 -4
10 -10z m2090 -111 c0 -4 16 -5 35 -2 27 4 35 2 35 -10 0 -10 6 -13 19 -10 25
6 28 1 41 -92 6 -44 17 -118 24 -165 8 -47 11 -88 7 -91 -3 -4 -167 -9 -363
-13 l-357 -6 0 54 c1 30 -2 59 -6 65 -4 7 -72 11 -193 12 -103 0 -182 3 -176
5 7 3 9 26 6 62 -4 52 -3 56 11 43 14 -11 18 -11 23 3 3 9 10 14 14 11 5 -3
11 -1 14 3 6 10 36 9 52 -1 6 -3 16 4 22 17 12 28 51 41 59 20 7 -19 27 -18
44 2 28 34 56 35 91 4 21 -20 39 -28 51 -24 12 4 24 -1 32 -13 14 -17 14 -17
15 5 0 12 5 22 10 22 6 0 10 13 10 30 0 25 4 30 35 36 22 4 41 2 50 -6 8 -7
26 -10 40 -6 39 10 74 -3 81 -30 9 -34 40 -50 52 -27 8 14 13 15 25 5 13 -11
16 -10 22 7 3 11 25 35 48 53 23 18 44 35 47 39 13 17 80 16 80 -2z m657 -311
c-3 -7 -5 -2 -5 12 0 14 2 19 5 13 2 -7 2 -19 0 -25z m-251 -26 c8 -7 14 -23
15 -35 1 -20 2 -20 9 3 7 22 8 21 9 -13 1 -21 5 -36 10 -32 5 3 12 1 16 -5 8
-13 -9 -13 -56 1 -32 10 -37 15 -34 38 2 15 8 25 16 23 11 -2 10 1 -1 10 -9 8
-13 23 -11 38 4 21 5 22 9 6 2 -11 10 -26 18 -34z m-1021 -779 c-3 -10 -149
-13 -685 -12 l-680 1 0 325 c0 178 4 322 8 319 5 -3 104 -6 220 -7 163 -2 212
-6 212 -15 0 -7 17 -16 38 -19 62 -11 66 -13 48 -30 -16 -17 -30 -20 -21 -6 9
15 -4 18 -107 25 l-97 7 -4 -28 c-4 -27 -4 -27 -12 -5 -13 39 -48 38 -120 -4
-35 -22 -65 -42 -65 -45 0 -4 9 -18 21 -33 22 -28 75 -36 97 -14 15 15 16 3 1
-23 -10 -19 -8 -20 28 -17 44 4 60 33 21 41 -13 2 -2 5 23 6 45 1 47 0 51 -29
4 -26 2 -29 -14 -24 -13 4 -18 0 -18 -15 0 -23 19 -28 38 -9 10 10 15 10 21
-1 6 -9 18 -11 40 -6 24 5 31 3 31 -8 0 -26 -117 -26 -159 0 -2 1 2 9 9 18 11
13 4 15 -58 15 -65 0 -72 2 -90 27 -11 16 -24 25 -28 21 -4 -4 15 -33 41 -65
65 -78 69 -82 56 -53 l-12 25 23 -25 c13 -14 30 -35 38 -47 14 -21 24 -22 135
-24 l120 -2 90 56 c140 87 133 71 70 153 -30 40 -52 74 -49 77 7 7 -18 57 -29
57 -5 0 -2 -11 6 -23 15 -23 15 -24 -10 -19 -17 3 -21 7 -12 13 10 6 9 12 -5
28 l-19 21 401 0 402 0 2 88 c2 48 4 -91 5 -308 2 -217 1 -401 -2 -407z
m-1092 780 c-7 -2 -21 -2 -30 0 -10 3 -4 5 12 5 17 0 24 -2 18 -5z m-78 -18
c-29 -13 -29 -13 33 -14 55 -1 62 -3 62 -21 0 -16 7 -20 36 -20 21 0 33 -4 29
-10 -3 -5 -1 -10 5 -10 6 0 10 12 8 28 -2 19 -13 32 -38 44 -19 10 -29 18 -22
18 24 0 71 -30 77 -50 3 -10 2 -28 -4 -38 -12 -23 -63 -46 -88 -39 -12 3 -9 5
9 6 15 0 30 6 33 11 6 10 -14 13 -76 10 -28 -1 -37 3 -41 18 -4 15 -12 18 -36
14 -23 -3 -31 0 -35 15 -3 12 -5 10 -6 -9 -1 -28 16 -43 68 -59 l26 -7 -26 -1
c-35 -1 -79 34 -79 64 0 28 43 65 74 65 17 -1 16 -3 -9 -15z m333 -52 c-10 -2
-26 -2 -35 0 -10 3 -2 5 17 5 19 0 27 -2 18 -5z m120 0 c-10 -2 -28 -2 -40 0
-13 2 -5 4 17 4 22 1 32 -1 23 -4z m110 0 c-10 -2 -28 -2 -40 0 -13 2 -5 4 17
4 22 1 32 -1 23 -4z m180 0 c-21 -2 -57 -2 -80 0 -24 2 -7 4 37 4 44 0 63 -2
43 -4z m150 0 c-10 -2 -26 -2 -35 0 -10 3 -2 5 17 5 19 0 27 -2 18 -5z m135 0
c-13 -2 -33 -2 -45 0 -13 2 -3 4 22 4 25 0 35 -2 23 -4z m1191 -48 c21 -4 26
-9 17 -15 -10 -6 -8 -9 8 -15 l21 -6 -22 -20 -23 -20 25 12 c23 11 24 11 11
-4 -7 -10 -9 -17 -4 -17 5 0 10 -6 10 -14 0 -9 -10 -6 -34 10 -19 13 -43 26
-53 29 -24 8 -24 77 0 71 8 -2 28 -7 44 -11z m-76 -197 l-2 -133 -6 125 c-3
69 -4 128 -2 133 10 22 12 -6 10 -125z m309 95 c-3 -10 -5 -4 -5 12 0 17 2 24
5 18 2 -7 2 -21 0 -30z m-2169 -33 c2 -33 0 -40 -16 -40 -10 0 -23 5 -30 12
-16 16 -82 17 -82 1 0 -7 -6 -13 -14 -13 -13 0 -31 58 -21 68 3 3 5 -2 5 -11
0 -9 5 -17 10 -17 6 0 10 5 10 10 0 6 6 10 13 9 25 -3 38 1 32 11 -4 6 13 10
42 10 l49 0 2 -40z m1937 9 c-4 -5 -12 -9 -18 -8 -9 0 -8 2 1 6 6 2 9 10 6 15
-4 7 -2 8 5 4 6 -4 9 -12 6 -17z m-1855 -49 c-18 -33 -25 -15 -9 22 9 23 15
28 17 16 2 -9 -2 -27 -8 -38z m1610 41 c0 -8 -116 -21 -192 -21 -31 0 -38 -3
-38 -20 0 -16 -7 -20 -30 -20 -22 0 -28 4 -24 15 7 17 -11 21 -21 5 -3 -6 -18
-7 -33 -3 -15 4 -35 6 -44 5 -10 0 -18 3 -18 7 0 5 75 15 168 23 209 19 232
20 232 9z m293 -18 c-7 -2 -19 -2 -25 0 -7 3 -2 5 12 5 14 0 19 -2 13 -5z
m-984 -41 c-36 -3 -37 -4 -42 -55 -2 -29 0 -55 5 -58 6 -4 6 -32 -1 -80 -6
-41 -13 -85 -15 -99 -2 -14 -4 49 -5 140 l-1 165 48 -5 c44 -4 45 -5 11 -8z
m114 11 c-13 -2 -33 -2 -45 0 -13 2 -3 4 22 4 25 0 35 -2 23 -4z m887 -3 c0
-5 -2 -10 -4 -10 -3 0 -8 5 -11 10 -3 6 -1 10 4 10 6 0 11 -4 11 -10z m57 -52
c-3 -7 -5 -2 -5 12 0 14 2 19 5 13 2 -7 2 -19 0 -25z m-642 7 c44 -9 86 -22
95 -30 12 -13 12 -15 0 -14 -42 1 -174 37 -178 47 -5 15 -13 15 83 -3z m592 9
c-3 -3 -12 -4 -19 -1 -8 3 -5 6 6 6 11 1 17 -2 13 -5z m-1977 -36 c-12 -4 -17
-13 -13 -26 6 -23 -23 -38 -31 -16 -3 8 -1 14 4 14 6 0 10 7 10 15 0 10 -11
15 -32 16 -27 0 -29 2 -13 8 11 5 23 7 27 5 4 -3 9 0 12 5 4 5 16 4 30 -2 23
-11 23 -13 6 -19z m120 3 c0 -5 -9 -7 -20 -4 -11 3 -20 7 -20 9 0 2 9 4 20 4
11 0 20 -4 20 -9z m1857 -7 c-3 -3 -12 -4 -19 -1 -8 3 -5 6 6 6 11 1 17 -2 13
-5z m-2296 -21 c13 -16 12 -17 -3 -4 -17 13 -22 21 -14 21 2 0 10 -8 17 -17z
m1454 -124 c-13 -21 -52 -28 -90 -16 -30 9 -34 12 -19 18 30 12 116 11 109 -2z
m-154 -8 c-8 -5 -20 -7 -28 -4 -21 8 -15 13 15 13 20 0 23 -3 13 -9z"/>
<path d="M1970 1051 c0 -6 9 -9 20 -8 11 1 20 5 20 9 0 4 -9 8 -20 8 -11 0
-20 -4 -20 -9z"/>
<path d="M2375 933 c45 -61 65 -81 46 -45 -5 10 -28 38 -51 62 l-42 45 47 -62z"/>
<path d="M2493 864 c-20 -9 -15 -38 7 -52 17 -10 39 -10 108 -1 48 6 129 9
180 6 75 -4 92 -3 92 9 0 12 -28 18 -77 17 -7 -1 -11 3 -8 7 3 4 -10 10 -28
13 -44 6 -259 7 -274 1z m147 -24 c0 -5 -4 -10 -10 -10 -5 0 -10 5 -10 10 0 6
5 10 10 10 6 0 10 -4 10 -10z"/>
<path d="M1931 492 c-12 -22 3 -42 31 -42 24 0 34 26 18 45 -17 20 -37 19 -49
-3z m43 -11 c3 -4 3 -11 0 -14 -8 -8 -34 3 -34 14 0 11 27 12 34 0z"/>
<path d="M2221 497 c-17 -21 -3 -49 23 -45 15 2 21 10 21 28 0 28 -26 38 -44
17z m39 -17 c0 -5 -7 -10 -15 -10 -8 0 -15 5 -15 10 0 6 7 10 15 10 8 0 15 -4
15 -10z"/>
<path d="M2504 496 c-10 -26 4 -48 28 -44 17 2 23 10 23 28 0 18 -6 26 -23 28
-13 2 -25 -3 -28 -12z m38 -14 c-7 -2 -10 -8 -6 -13 3 -5 1 -9 -5 -9 -5 0 -13
5 -17 11 -8 13 16 30 30 22 6 -4 5 -8 -2 -11z"/>
<path d="M2790 495 c-10 -12 -10 -18 0 -30 7 -8 18 -15 25 -15 7 0 18 7 25 15
10 12 10 18 0 30 -7 8 -18 15 -25 15 -7 0 -18 -7 -25 -15z m40 -15 c0 -5 -7
-10 -15 -10 -8 0 -15 5 -15 10 0 6 7 10 15 10 8 0 15 -4 15 -10z"/>
<path d="M4073 1079 c1 -11 11 -25 22 -30 17 -9 18 -8 4 3 -9 7 -15 21 -13 31
1 9 -2 17 -6 17 -5 0 -8 -9 -7 -21z"/>
<path d="M471 1974 c-136 -44 -172 -64 -170 -93 0 -10 2 -12 6 -3 3 7 26 12
63 12 39 0 62 5 70 15 12 15 122 54 168 60 13 2 27 6 30 10 7 7 -10 38 -24 41
-5 1 -69 -17 -143 -42z"/>
<path d="M505 1840 c-55 -16 -119 -33 -142 -40 -28 -7 -43 -16 -43 -26 0 -10
6 -14 15 -10 24 9 213 57 278 71 29 6 38 35 10 34 -10 0 -63 -13 -118 -29z"/>
<path d="M290 1780 c0 -5 5 -10 10 -10 6 0 10 5 10 10 0 6 -4 10 -10 10 -5 0
-10 -4 -10 -10z"/>
<path d="M293 1715 c0 -27 2 -38 4 -22 2 15 2 37 0 50 -2 12 -4 0 -4 -28z"/>
<path d="M629 1212 c-3 -34 -11 -68 -19 -75 -10 -10 -12 -9 -6 6 12 35 -7 40
-22 6 -11 -26 -16 -30 -19 -16 -5 21 -26 22 -44 1 -8 -9 -21 -13 -35 -10 -12
3 -38 -1 -58 -9 -46 -19 -70 -19 -62 0 7 18 -10 20 -17 3 -4 -10 -8 -9 -16 2
-8 11 -11 -16 -11 -100 0 -63 -3 -167 -8 -230 l-7 -115 -5 120 c-5 107 -6 98
-8 -82 -2 -188 -1 -204 17 -222 11 -11 17 -21 15 -24 -3 -3 16 -12 42 -21 26
-9 49 -14 52 -11 2 2 -8 7 -22 11 -15 3 -25 9 -22 11 8 9 136 -40 130 -49 -3
-4 1 -5 9 -3 7 3 24 1 38 -5 23 -10 22 -10 -6 -5 -21 4 -26 3 -15 -4 9 -5 35
-7 59 -4 45 6 62 28 60 76 -1 15 -3 17 -6 6 -3 -15 -14 -13 -95 12 -95 30
-118 43 -118 65 0 17 14 14 133 -23 44 -13 80 -23 80 -21 1 2 0 176 -3 388 -3
212 -8 357 -11 322z m-246 -143 c3 -10 2 -19 -3 -19 -4 0 -7 -57 -8 -126 0
-69 -3 -128 -6 -131 -3 -3 -12 -3 -21 0 -13 5 -15 30 -15 155 l0 149 24 -4
c13 -3 26 -14 29 -24z"/>
<path d="M345 950 c3 -5 8 -10 11 -10 2 0 4 5 4 10 0 6 -5 10 -11 10 -5 0 -7
-4 -4 -10z"/>
<path d="M345 920 c-3 -5 -1 -10 4 -10 6 0 11 5 11 10 0 6 -2 10 -4 10 -3 0
-8 -4 -11 -10z"/>
<path d="M345 871 c-3 -5 -1 -12 5 -16 5 -3 10 1 10 9 0 18 -6 21 -15 7z"/>
<path d="M345 831 c-3 -5 -1 -12 5 -16 5 -3 10 1 10 9 0 18 -6 21 -15 7z"/>
<path d="M328 1143 c6 -2 18 -2 25 0 6 3 1 5 -13 5 -14 0 -19 -2 -12 -5z"/>
<path d="M385 1120 c3 -5 8 -10 11 -10 2 0 4 5 4 10 0 6 -5 10 -11 10 -5 0 -7
-4 -4 -10z"/>
<path d="M4532 745 c-88 -38 -81 -42 75 -38 185 6 173 5 173 14 0 14 -102 39
-159 39 -31 -1 -71 -7 -89 -15z"/>
<path d="M4421 731 c-10 -7 -10 -10 -1 -16 6 -4 16 -3 22 3 13 13 -4 23 -21
13z"/>
<path d="M4149 713 c-8 -2 -116 -22 -240 -44 -277 -49 -279 -50 -306 -52 -12
-1 -25 -5 -29 -9 -4 -4 -18 -5 -30 -2 -15 4 -24 2 -24 -5 0 -7 -9 -9 -25 -5
-16 4 -25 2 -25 -6 0 -8 -10 -9 -30 -5 -19 4 -30 3 -30 -4 0 -7 -10 -9 -24 -5
-30 7 -74 -5 -57 -16 7 -4 -17 -6 -53 -6 -86 1 -104 -15 -37 -34 19 -5 29 -5
26 1 -4 5 1 9 10 9 9 0 14 -4 11 -9 -8 -12 18 -21 60 -21 20 0 33 -4 30 -9 -3
-5 2 -11 12 -14 9 -2 90 -26 178 -52 l161 -47 199 52 c110 29 327 85 483 125
155 41 285 76 288 79 3 3 -3 8 -13 12 -10 4 -38 15 -61 26 -27 13 -58 19 -85
16 -24 -1 -71 1 -106 6 -48 6 -79 4 -133 -9 -55 -14 -76 -15 -95 -6 -14 6 -39
12 -57 12 -22 1 -12 5 33 14 54 11 59 13 25 13 -22 0 -47 -2 -56 -5z m-52 -29
c-3 -3 -12 -4 -19 -1 -8 3 -5 6 6 6 11 1 17 -2 13 -5z m-44 -11 c-7 -2 -19 -2
-25 0 -7 3 -2 5 12 5 14 0 19 -2 13 -5z m-183 -33 c0 -5 -5 -10 -11 -10 -5 0
-7 5 -4 10 3 6 8 10 11 10 2 0 4 -4 4 -10z m599 -16 c30 -10 1 -14 -37 -6 -48
11 -80 -2 -42 -17 38 -15 -2 -13 -70 3 -52 13 -53 14 -25 20 17 4 39 11 50 15
17 7 82 -1 124 -15z m-1064 -84 c-3 -5 1 -10 9 -10 8 0 17 -4 20 -8 9 -16 -40
-7 -58 10 -19 18 -19 18 8 18 15 0 25 -4 21 -10z"/>
<path d="M1433 690 c-25 -10 -29 -20 -12 -37 19 -19 -8 -24 -51 -9 -38 13 -47
12 -113 -9 -40 -13 -137 -40 -217 -60 -80 -20 -163 -43 -185 -50 -98 -32 -161
-49 -177 -46 -13 2 -18 -5 -18 -24 0 -14 -5 -35 -11 -47 -6 -11 -9 -21 -7 -24
2 -2 30 4 62 13 42 12 62 24 79 47 30 43 46 58 55 52 4 -2 43 5 87 16 44 11
125 28 180 39 102 19 155 36 155 48 0 4 27 5 59 3 74 -5 153 19 171 52 21 41
-5 57 -57 36z"/>
<path d="M4615 575 c-66 -18 -228 -61 -360 -95 -132 -35 -296 -78 -364 -96
-69 -19 -133 -34 -143 -34 -10 0 -18 -6 -18 -14 0 -8 -5 -18 -10 -21 -6 -4
-122 23 -258 58 -136 36 -258 68 -272 71 -24 5 -60 -8 -50 -17 3 -3 59 -16
125 -31 66 -14 191 -42 278 -61 87 -19 168 -35 180 -35 24 0 952 265 1004 286
34 15 43 25 21 23 -7 0 -67 -15 -133 -34z"/>
<path d="M1392 340 c0 -14 2 -19 5 -12 2 6 2 18 0 25 -3 6 -5 1 -5 -13z"/>
<path d="M2313 353 c37 -2 97 -2 135 0 37 2 6 3 -68 3 -74 0 -105 -1 -67 -3z"/>
<path d="M3223 343 c9 -2 25 -2 35 0 9 3 1 5 -18 5 -19 0 -27 -2 -17 -5z"/>
<path d="M1427 303 c13 -10 144 -13 567 -14 303 -1 722 -2 931 -3 342 -1 383
1 410 16 l30 17 -45 -4 c-79 -8 -1680 -14 -1798 -7 -91 6 -109 5 -95 -5z"/>
</g>
</svg>
